<?xml version="1.0" standalone="no"?>
<!DOCTYPE svg PUBLIC "-//W3C//DTD SVG 20010904//EN"
 "http://www.w3.org/TR/2001/REC-SVG-20010904/DTD/svg10.dtd">
<svg version="1.0" xmlns="http://www.w3.org/2000/svg"
 width="157.000000pt" height="157.000000pt" viewBox="0 0 157.000000 157.000000"
 preserveAspectRatio="xMidYMid meet">
<metadata>
Created by potrace 1.14, written by Peter Selinger 2001-2017
</metadata>
<g transform="translate(0.000000,157.000000) scale(0.100000,-0.100000)"
fill="#000000" stroke="none">
<path d="M625 1554 c-311 -66 -556 -320 -614 -634 -14 -76 -7 -252 13 -330 20
-75 94 -231 131 -275 134 -157 266 -246 436 -291 87 -23 256 -27 344 -8 300
63 530 279 611 575 25 89 25 299 0 388 -78 285 -286 488 -581 571 -66 18 -261
20 -340 4z"/>
</g>
</svg>
